<?xml version="1.0" standalone="no"?>
<!DOCTYPE svg PUBLIC "-//W3C//DTD SVG 20010904//EN"
 "http://www.w3.org/TR/2001/REC-SVG-20010904/DTD/svg10.dtd">
<svg version="1.0" xmlns="http://www.w3.org/2000/svg"
 width="1024.000000pt" height="1024.000000pt" viewBox="0 0 1024.000000 1024.000000"
 preserveAspectRatio="xMidYMid meet">
<metadata>
Created by potrace 1.11, written by Peter Selinger 2001-2013
</metadata>
<g transform="translate(0.000000,1024.000000) scale(0.100000,-0.100000)"
fill="#000000" stroke="none">
<path d="M967 8372 c-101 -25 -174 -103 -193 -206 -8 -45 -8 -5771 1 -5836 4
-30 14 -73 22 -95 8 -22 17 -49 20 -60 10 -31 82 -125 132 -173 58 -54 148
-105 226 -128 57 -17 257 -18 4050 -18 2195 0 4006 3 4025 6 96 15 176 83 205
175 15 46 17 99 17 361 0 332 -4 370 -51 434 -36 49 -70 75 -123 95 -39 15
-349 16 -3743 17 l-3700 1 0 2610 c-1 2149 -3 2617 -14 2650 -28 83 -104 151
-191 171 -61 14 -626 11 -683 -4z"/>
<path d="M6551 7829 c-132 -26 -239 -131 -288 -284 -19 -58 -24 -151 -11 -209
7 -28 11 -54 10 -58 -1 -5 2 -8 7 -8 5 0 14 -15 22 -32 7 -20 135 -156 313
-335 165 -167 298 -305 295 -307 -2 -3 -162 -166 -356 -363 -193 -197 -470
-479 -615 -626 l-263 -268 -465 472 c-256 259 -542 549 -635 644 -94 95 -195
188 -225 207 -189 119 -439 116 -623 -6 -64 -42 -49 -28 -657 -646 -699 -710
-661 -668 -673 -754 -5 -40 19 -136 35 -136 4 0 8 -7 8 -15 0 -8 108 -122 240
-254 273 -272 309 -298 404 -288 32 3 70 15 94 31 22 13 225 210 452 437 l412
412 271 -276 c641 -650 984 -995 1017 -1020 149 -110 349 -142 525 -83 44 15
87 34 96 42 8 8 19 14 23 14 22 0 152 126 902 877 447 447 816 813 821 813 5
0 103 -96 219 -212 371 -374 404 -403 500 -431 61 -18 167 -15 217 6 20 9 37
14 37 11 0 -7 78 36 120 66 74 53 122 129 138 219 6 31 9 479 8 1114 -1 900
-3 1067 -16 1092 -21 45 -79 115 -96 115 -8 0 -14 4 -14 9 0 4 -21 15 -47 24
-43 14 -168 16 -1103 15 -580 0 -1075 -4 -1099 -9z"/>
</g>
</svg>
